<?xml version="1.0" encoding="utf-8"?>
<!-- Generator: Adobe Illustrator 18.0.0, SVG Export Plug-In . SVG Version: 6.00 Build 0)  -->
<!DOCTYPE svg PUBLIC "-//W3C//DTD SVG 1.1//EN" "http://www.w3.org/Graphics/SVG/1.1/DTD/svg11.dtd">
<svg version="1.1" id="Layer_1" xmlns="http://www.w3.org/2000/svg" xmlns:xlink="http://www.w3.org/1999/xlink" x="0px" y="0px"
	 viewBox="0 0 512 512" enable-background="new 0 0 512 512" xml:space="preserve">
<path fill="#448800" d="M48.023,130.106v251.788c0,18.836,15.27,34.106,34.106,34.106h347.742c18.836,0,34.106-15.27,34.106-34.106
	V130.106c0-18.836-15.27-34.106-34.106-34.106H82.129C63.293,96,48.023,111.27,48.023,130.106z M81.823,381.867v-252.2h348.02v252.2
	H81.823z"/>
<g>
	<path fill="#448800" d="M345.082,228.339l2.623-2.57c4.116-4.223,6.365-9.881,6.293-15.935c-0.072-6.028-2.417-11.688-6.604-15.958
		l-32.825-29.129c-4.259-4.355-9.882-6.747-15.864-6.747c-5.789,0-11.197,2.249-15.24,6.328c-0.005,0.003-0.987,1.007-2.752,2.81
		L345.082,228.339z"/>
	<path fill="#448800" d="M177.307,272.815c-0.576,0.572-0.978,1.305-1.18,2.11l-17.992,73.416c-0.383,1.555,0.06,3.194,1.172,4.319
		c0.837,0.873,1.986,1.34,3.146,1.34c0.359,0,0.73-0.048,1.077-0.144l74.051-20.313c0.802-0.203,1.519-0.622,2.094-1.22l0.101-0.115
		L177.307,272.815z"/>
	<path fill="#448800" d="M263.767,184.454c-20.231,20.675-51.262,52.392-69.513,71.047l62.471,59.395l71.042-69.594L263.767,184.454
		z"/>
</g>
</svg>
