<?xml version="1.0" encoding="utf-8"?>
<!-- Generator: Adobe Illustrator 16.0.0, SVG Export Plug-In . SVG Version: 6.00 Build 0)  -->
<!DOCTYPE svg PUBLIC "-//W3C//DTD SVG 1.1//EN" "http://www.w3.org/Graphics/SVG/1.1/DTD/svg11.dtd">
<svg version="1.1" id="Layer_1" xmlns="http://www.w3.org/2000/svg" xmlns:xlink="http://www.w3.org/1999/xlink" x="0px" y="0px"
	 width="45px" height="45px" viewBox="0 0 45 45" enable-background="new 0 0 45 45" xml:space="preserve">
<path opacity="0.5" fill-rule="evenodd" clip-rule="evenodd" fill="#FFFFFF" stroke="#CCCCCC" stroke-width="0.9817" stroke-miterlimit="10" d="
	M22.5,1c11.87,0,21.493,9.625,21.493,21.499S34.37,44,22.5,44C10.629,44,1.007,34.373,1.007,22.499S10.629,1,22.5,1z"/>
<path fill="#666666" d="M27.301,21.475l-7.55-7.55c-0.274-0.274-0.639-0.425-1.025-0.425c-0.389,0-0.753,0.151-1.024,0.424
	c-0.274,0.273-0.426,0.637-0.426,1.024s0.15,0.753,0.425,1.027l6.524,6.524L17.7,29.024c-0.565,0.565-0.565,1.485,0.001,2.053
	c0.273,0.272,0.638,0.423,1.024,0.423s0.751-0.15,1.025-0.424l7.548-7.551c0.275-0.272,0.426-0.637,0.426-1.024
	C27.726,22.113,27.574,21.748,27.301,21.475z"/>
</svg>
