<?xml version="1.0" encoding="utf-8"?>
<!-- Generator: Adobe Illustrator 16.0.0, SVG Export Plug-In . SVG Version: 6.00 Build 0)  -->
<!DOCTYPE svg PUBLIC "-//W3C//DTD SVG 1.1//EN" "http://www.w3.org/Graphics/SVG/1.1/DTD/svg11.dtd">
<svg version="1.1" id="Layer_1" xmlns="http://www.w3.org/2000/svg" xmlns:xlink="http://www.w3.org/1999/xlink" x="0px" y="0px"
	 width="45px" height="45px" viewBox="0 0 45 45" enable-background="new 0 0 45 45" xml:space="preserve">
<path opacity="0.5" fill="#FFFFFF" stroke="#CCCCCC" stroke-width="0.9817" stroke-miterlimit="10" enable-background="new    " d="
	M22.5,1c11.87,0,21.493,9.625,21.493,21.499S34.37,44,22.5,44C10.629,44,1.007,34.373,1.007,22.499S10.629,1,22.5,1z"/>
<path fill="#01347a" d="M17.7,23.525l7.55,7.55c0.273,0.274,0.639,0.425,1.024,0.425c0.39,0,0.753-0.15,1.024-0.424
	c0.273-0.273,0.426-0.637,0.426-1.024c0-0.387-0.149-0.753-0.425-1.026l-6.524-6.524l6.525-6.524
	c0.564-0.565,0.564-1.485-0.001-2.054c-0.273-0.272-0.638-0.423-1.024-0.423c-0.386,0-0.751,0.15-1.024,0.424l-7.548,7.551
	c-0.274,0.272-0.427,0.637-0.427,1.024C17.274,22.887,17.426,23.252,17.7,23.525z"/>
</svg>
