<?xml version="1.0" encoding="utf-8"?>
<!-- Generator: Adobe Illustrator 16.0.0, SVG Export Plug-In . SVG Version: 6.00 Build 0)  -->
<!DOCTYPE svg PUBLIC "-//W3C//DTD SVG 1.1//EN" "http://www.w3.org/Graphics/SVG/1.1/DTD/svg11.dtd">
<svg version="1.1" id="Layer_1" xmlns="http://www.w3.org/2000/svg" xmlns:xlink="http://www.w3.org/1999/xlink" x="0px" y="0px"
	 width="11px" height="18px" viewBox="0 0 11 18" enable-background="new 0 0 11 18" xml:space="preserve">
<path fill="#01347a" d="M0.7,10.025l7.55,7.551C8.522,17.85,8.888,18,9.274,18c0.389,0,0.752-0.15,1.024-0.424
	c0.273-0.273,0.425-0.637,0.426-1.024c0-0.388-0.149-0.752-0.425-1.026L3.775,9L10.3,2.477c0.564-0.565,0.564-1.485,0-2.053
	C10.024,0.15,9.661,0,9.273,0c-0.387,0-0.75,0.15-1.024,0.425L0.7,7.975C0.427,8.248,0.275,8.611,0.275,9
	C0.273,9.387,0.425,9.751,0.7,10.025z"/>
</svg>
