<?xml version="1.0" encoding="utf-8"?>
<!-- Generator: Adobe Illustrator 16.0.0, SVG Export Plug-In . SVG Version: 6.00 Build 0)  -->
<!DOCTYPE svg PUBLIC "-//W3C//DTD SVG 1.1//EN" "http://www.w3.org/Graphics/SVG/1.1/DTD/svg11.dtd">
<svg version="1.1" id="Layer_1" xmlns="http://www.w3.org/2000/svg" xmlns:xlink="http://www.w3.org/1999/xlink" x="0px" y="0px"
	 width="11px" height="18px" viewBox="0 0 11 18" enable-background="new 0 0 11 18" xml:space="preserve">
<path fill="#01347a" d="M10.3,7.974L2.75,0.424C2.477,0.151,2.112,0,1.725,0C1.337,0,0.973,0.151,0.701,0.424
	C0.427,0.697,0.276,1.061,0.275,1.448c0,0.388,0.15,0.752,0.425,1.027L7.225,9L0.7,15.524c-0.565,0.565-0.565,1.485,0,2.052
	C0.975,17.85,1.339,18,1.726,18s0.75-0.15,1.025-0.425l7.549-7.55C10.573,9.752,10.725,9.388,10.725,9
	C10.726,8.613,10.574,8.249,10.3,7.974z"/>
</svg>
